<?xml version="1.0" encoding="utf-8"?>
<!-- Generator: Adobe Illustrator 16.0.4, SVG Export Plug-In . SVG Version: 6.00 Build 0)  -->
<!DOCTYPE svg PUBLIC "-//W3C//DTD SVG 1.1//EN" "http://www.w3.org/Graphics/SVG/1.1/DTD/svg11.dtd">
<svg version="1.1" xmlns="http://www.w3.org/2000/svg" xmlns:xlink="http://www.w3.org/1999/xlink" x="0px" y="0px"
	 width="223.621px" height="104.493px" viewBox="0 0 223.621 104.493" enable-background="new 0 0 223.621 104.493"
	 xml:space="preserve">
<g id="Layer_1" display="none">
	<g display="inline">
		<path fill-rule="evenodd" clip-rule="evenodd" fill="none" stroke="#000000" stroke-miterlimit="10" d="M114.811,280.034
			c2.396,0.922,5.099,1.78,7.646,2.972c18.81,8.789,37.587,17.648,56.377,26.479c15.496,7.282,31.014,14.516,46.466,21.89
			c1.683,0.803,2.989,2.395,4.471,3.62c-1.673,1.107-3.266,2.363-5.029,3.298c-10.115,5.359-20.22,10.743-30.427,15.925
			c-12.149,6.169-24.415,12.108-36.6,18.207c-12.343,6.178-24.589,12.554-37.03,18.522c-2.05,0.983-5.301,1.214-7.298,0.288
			c-22.336-10.36-44.534-21.019-66.772-31.59c-13.961-6.637-27.943-13.231-41.872-19.938c-1.339-0.645-2.364-1.943-3.535-2.938
			c1.151-0.774,2.234-1.682,3.463-2.301c14.972-7.546,29.956-15.069,44.956-22.559c20.802-10.388,41.619-20.746,62.441-31.092
			C112.797,280.456,113.657,280.355,114.811,280.034z"/>
		<path fill-rule="evenodd" clip-rule="evenodd" fill="none" stroke="#000000" stroke-miterlimit="10" d="M228.287,191.758
			c-5.738,2.928-9.953,5.128-14.212,7.243c-12.065,5.992-24.179,11.891-36.219,17.933c-19.552,9.812-39.204,19.439-58.503,29.729
			c-5.843,3.115-10.133,0.228-14.463-1.763c-21.288-9.778-42.352-20.043-63.526-30.07c-12.934-6.125-25.93-12.116-38.873-18.223
			c-0.943-0.445-1.675-1.341-3.161-2.568c5.706-2.956,10.743-5.684,15.88-8.206c20-9.82,40.057-19.527,60.044-29.372
			c11.479-5.655,22.827-11.58,34.347-17.15c1.526-0.737,3.989-0.693,5.565,0.007c14.745,6.548,29.416,13.265,44.061,20.036
			c21.135,9.772,42.229,19.628,63.335,29.461C224.002,189.484,225.391,190.264,228.287,191.758z"/>
		<path fill-rule="evenodd" clip-rule="evenodd" fill="none" stroke="#000000" stroke-miterlimit="10" d="M224.412,50.379
			c-6.295,3.222-11.666,6.033-17.091,8.735c-30.768,15.322-61.509,30.7-92.41,45.748c-2.151,1.047-5.81,0.236-8.283-0.833
			c-10.224-4.42-20.265-9.265-30.367-13.969c-20.79-9.68-41.592-19.334-62.351-29.08c-4.978-2.337-9.805-4.993-14.701-7.503
			c0.075-0.532,0.15-1.063,0.226-1.596c5.74-2.826,11.482-5.65,17.221-8.479c29.792-14.689,59.542-29.465,89.452-43.91
			c2.406-1.162,6.319-0.982,8.833,0.139c21.565,9.614,42.962,19.608,64.427,29.45c13.286,6.093,26.612,12.098,39.896,18.195
			C220.814,47.987,222.209,49.037,224.412,50.379z"/>
	</g>
</g>
<g id="Layer_2">
	<g>
		<polygon fill-rule="evenodd" clip-rule="evenodd" fill="#2ECC71" points="211.811,52.247 111.811,98.974 11.811,52.247 
			111.811,5.519 		"/>
	</g>
</g>
</svg>
