<?xml version="1.0" encoding="utf-8"?>
<!-- Generator: Adobe Illustrator 16.0.4, SVG Export Plug-In . SVG Version: 6.00 Build 0)  -->
<!DOCTYPE svg PUBLIC "-//W3C//DTD SVG 1.1//EN" "http://www.w3.org/Graphics/SVG/1.1/DTD/svg11.dtd">
<svg version="1.1" id="Layer_1" xmlns="http://www.w3.org/2000/svg" xmlns:xlink="http://www.w3.org/1999/xlink" x="0px" y="0px"
	 width="216px" height="306px" viewBox="0 0 216 306" enable-background="new 0 0 216 306" xml:space="preserve">
<path fill="none" stroke="#000000" stroke-width="1.4173" stroke-miterlimit="10" d="M145.23,213.082
	c0.585-5.436,1.122-7.075,2.731-11.46c2.487-6.798,1.426-12.996-1.784-19.097c-1.009-1.92-2.281-3.693-3.412-5.554
	c-2.68-4.425-1.476-8.663,3.262-10.804c6.327-2.857,12.598-2.058,18.607,0.982c10.507,5.317,13.562,15.051,11.465,25.427
	c-1.177,5.783-3.261,11.381-4.503,17.154c-1.479,6.878,0.197,13.274,4.042,19.136c0.917,1.396,1.775,2.845,2.542,4.33
	c2.36,4.557,0.88,7.965-4.077,9.307c-7.367,1.996-13.587-0.479-19.299-4.986C147.648,231.872,144.378,224.361,145.23,213.082z"/>
<polygon fill="none" stroke="#000000" stroke-width="1.4173" stroke-miterlimit="10" points="107.542,164.474 125.99,203.875 
	107.542,243.275 89.099,203.875 "/>
<path fill="none" stroke="#000000" stroke-width="1.4173" stroke-miterlimit="10" d="M72.81,182.803
	c0-9.946-8.08-18.012-18.044-18.012c-9.968,0-18.045,8.065-18.045,18.012v42.783c0,9.944,8.078,18.012,18.045,18.012
	s18.044-8.067,18.044-18.012V182.803z"/>
</svg>
