<?xml version="1.0" encoding="utf-8"?>
<!-- Generator: Adobe Illustrator 16.0.4, SVG Export Plug-In . SVG Version: 6.00 Build 0)  -->
<!DOCTYPE svg PUBLIC "-//W3C//DTD SVG 1.1//EN" "http://www.w3.org/Graphics/SVG/1.1/DTD/svg11.dtd">
<svg version="1.1" id="Layer_1" xmlns="http://www.w3.org/2000/svg" xmlns:xlink="http://www.w3.org/1999/xlink" x="0px" y="0px"
	 width="423.499px" height="236.656px" viewBox="0 610.5 423.499 236.656" enable-background="new 0 610.5 423.499 236.656"
	 xml:space="preserve">
<g>
	<path d="M347.424,610.5v1.5c9.842,0,20.145,2.688,30.621,7.988c14.553,7.364,24.733,17.881,30.258,31.259
		c5.106,12.364,6.081,26.626,2.896,42.387c-1.794,8.815-4.356,17.66-6.833,26.214c-2.317,8.001-4.714,16.274-6.496,24.559
		c-4.215,19.604-0.118,39.049,12.18,57.797c2.779,4.231,5.285,8.499,7.448,12.687c3.268,6.311,3.953,11.721,2.035,16.081
		c-1.912,4.348-6.341,7.489-13.167,9.337c-4.936,1.338-9.874,2.016-14.677,2.016c-13.607,0-27.064-5.399-41.142-16.508
		c-10.665-8.412-18.058-17.996-22.602-29.3c-4.72-11.739-6.413-25.398-5.182-41.709c1.709-15.89,3.284-20.715,8.003-33.575
		c6.906-18.878,5.152-37.771-5.363-57.756c-1.954-3.719-4.258-7.287-6.486-10.738c-1.219-1.888-2.48-3.841-3.661-5.785
		c-3.733-6.164-4.838-12.221-3.195-17.516c1.611-5.19,5.825-9.453,12.187-12.328c7.506-3.39,15.303-5.108,23.175-5.108
		L347.424,610.5 M347.423,610.5c-7.869,0-15.816,1.64-23.792,5.241c-14.028,6.339-17.593,18.887-9.658,31.988
		c3.349,5.511,7.115,10.76,10.103,16.444c9.504,18.063,12.646,36.415,5.282,56.542c-4.765,12.983-6.354,17.836-8.086,33.931
		c-2.523,33.395,7.158,55.634,28.346,72.347c12.874,10.158,26.619,16.83,42.071,16.83c4.846,0,9.861-0.656,15.069-2.067
		c14.677-3.974,19.059-14.063,12.071-27.556c-2.271-4.397-4.812-8.688-7.526-12.82c-11.385-17.356-16.347-36.294-11.968-56.658
		c3.678-17.092,9.848-33.667,13.333-50.789c6.208-30.721-2.837-59.541-33.946-75.283C368.506,613.48,358.035,610.5,347.423,610.5
		L347.423,610.5z"/>
</g>
<g>
	<path d="M209.685,614.267l52.965,113.12l-52.965,113.117l-52.949-113.117L209.685,614.267 M209.685,610.729L155.08,727.387
		l54.605,116.655l54.621-116.655L209.685,610.729L209.685,610.729z"/>
</g>
<g>
	<path d="M53.427,613.167c28.631,0,51.924,23.251,51.924,51.83v126.671c0,28.579-23.293,51.83-51.924,51.83
		c-28.633,0-51.927-23.251-51.927-51.83V664.997C1.5,636.418,24.794,613.167,53.427,613.167 M53.427,611.667
		C23.914,611.667,0,635.546,0,664.997v126.671c0,29.442,23.917,53.33,53.427,53.33c29.51,0,53.424-23.885,53.424-53.33V664.997
		C106.852,635.549,82.928,611.667,53.427,611.667L53.427,611.667z"/>
</g>
</svg>
